<svg width="516" height="239" viewBox="0 0 516 239" fill="none" xmlns="http://www.w3.org/2000/svg">
<g clip-path="url(#clip0_282_80)">
<path d="M178.693 48.4177C175.174 41.8028 177.317 33.3781 183.479 29.6007L228.799 1.81769C234.961 -1.95975 242.809 0.340459 246.327 6.95535C249.846 13.5702 247.704 21.9949 241.542 25.7723L196.221 53.5553C190.06 57.3328 182.212 55.0326 178.693 48.4177Z" fill="#EA4335"/>
<path d="M269.673 77.0447C266.154 70.4298 268.296 62.0051 274.458 58.2277L319.779 30.4447C325.94 26.6672 333.788 28.9674 337.307 35.5823C340.826 42.1972 338.683 50.6219 332.521 54.3993L287.201 82.1823C281.039 85.9597 273.191 83.6595 269.673 77.0447Z" fill="#FBBE0C"/>
<path d="M178.809 34.6686C182.391 28.0934 190.261 25.8809 196.386 29.7269L241.435 58.0143C247.559 61.8604 249.62 70.3085 246.038 76.8837C242.455 83.459 234.586 85.6714 228.461 81.8254L183.412 53.538C177.287 49.692 175.226 41.2439 178.809 34.6686Z" fill="#4285F4"/>
<path d="M269.903 7.12822C273.486 0.552963 281.355 -1.65951 287.48 2.18652L332.529 30.4739C338.654 34.32 340.715 42.7681 337.132 49.3433C333.55 55.9186 325.68 58.131 319.555 54.285L274.507 25.9976C268.382 22.1516 266.321 13.7035 269.903 7.12822Z" fill="#28A769"/>
<path d="M43.4405 141.84C43.4405 145.84 42.2538 149.027 39.8805 151.4C37.2138 154.227 33.7072 155.64 29.3605 155.64C25.2005 155.64 21.6805 154.2 18.8005 151.32C15.9205 148.44 14.4805 144.893 14.4805 140.68C14.4805 136.467 15.9205 132.92 18.8005 130.04C21.6805 127.16 25.2005 125.72 29.3605 125.72C31.4672 125.72 33.4538 126.093 35.3205 126.84C37.1872 127.587 38.7205 128.64 39.9205 130L37.2805 132.64C36.4005 131.573 35.2538 130.747 33.8405 130.16C32.4538 129.547 30.9605 129.24 29.3605 129.24C26.2405 129.24 23.6005 130.32 21.4405 132.48C19.3072 134.667 18.2405 137.4 18.2405 140.68C18.2405 143.96 19.3072 146.693 21.4405 148.88C23.6005 151.04 26.2405 152.12 29.3605 152.12C32.2138 152.12 34.5872 151.32 36.4805 149.72C38.3738 148.12 39.4672 145.92 39.7605 143.12H29.3605V139.68H43.2405C43.3738 140.427 43.4405 141.147 43.4405 141.84ZM47.5564 145.2C47.5564 142.187 48.5031 139.693 50.3964 137.72C52.3164 135.747 54.7298 134.76 57.6364 134.76C60.5431 134.76 62.9431 135.747 64.8364 137.72C66.7564 139.693 67.7164 142.187 67.7164 145.2C67.7164 148.24 66.7564 150.733 64.8364 152.68C62.9431 154.653 60.5431 155.64 57.6364 155.64C54.7298 155.64 52.3164 154.653 50.3964 152.68C48.5031 150.707 47.5564 148.213 47.5564 145.2ZM51.2364 145.2C51.2364 147.307 51.8498 149.013 53.0764 150.32C54.3031 151.627 55.8231 152.28 57.6364 152.28C59.4498 152.28 60.9698 151.627 62.1964 150.32C63.4231 149.013 64.0364 147.307 64.0364 145.2C64.0364 143.12 63.4231 141.427 62.1964 140.12C60.9431 138.787 59.4231 138.12 57.6364 138.12C55.8498 138.12 54.3298 138.787 53.0764 140.12C51.8498 141.427 51.2364 143.12 51.2364 145.2ZM71.5393 145.2C71.5393 142.187 72.4859 139.693 74.3793 137.72C76.2993 135.747 78.7126 134.76 81.6193 134.76C84.5259 134.76 86.9259 135.747 88.8193 137.72C90.7393 139.693 91.6993 142.187 91.6993 145.2C91.6993 148.24 90.7393 150.733 88.8193 152.68C86.9259 154.653 84.5259 155.64 81.6193 155.64C78.7126 155.64 76.2993 154.653 74.3793 152.68C72.4859 150.707 71.5393 148.213 71.5393 145.2ZM75.2193 145.2C75.2193 147.307 75.8326 149.013 77.0593 150.32C78.2859 151.627 79.8059 152.28 81.6193 152.28C83.4326 152.28 84.9526 151.627 86.1793 150.32C87.4059 149.013 88.0193 147.307 88.0193 145.2C88.0193 143.12 87.4059 141.427 86.1793 140.12C84.9259 138.787 83.4059 138.12 81.6193 138.12C79.8326 138.12 78.3126 138.787 77.0593 140.12C75.8326 141.427 75.2193 143.12 75.2193 145.2ZM105.442 152.28C107.255 152.28 108.735 151.627 109.882 150.32C111.082 149.013 111.682 147.307 111.682 145.2C111.682 143.147 111.082 141.453 109.882 140.12C108.708 138.787 107.228 138.12 105.442 138.12C103.682 138.12 102.202 138.787 101.002 140.12C99.8021 141.453 99.2021 143.147 99.2021 145.2C99.2021 147.28 99.8021 148.973 101.002 150.28C102.202 151.613 103.682 152.28 105.442 152.28ZM105.322 164.28C104.228 164.28 103.202 164.133 102.242 163.84C101.282 163.573 100.402 163.187 99.6021 162.68C98.8287 162.173 98.1621 161.573 97.6021 160.88C97.0421 160.187 96.6154 159.413 96.3221 158.56L99.8021 157.12C100.202 158.267 100.895 159.187 101.882 159.88C102.868 160.573 104.015 160.92 105.322 160.92C107.322 160.92 108.882 160.32 110.002 159.12C111.122 157.92 111.682 156.267 111.682 154.16V152.28H111.522C110.828 153.32 109.882 154.147 108.682 154.76C107.508 155.347 106.228 155.64 104.842 155.64C102.282 155.64 100.082 154.64 98.2421 152.64C96.4287 150.587 95.5221 148.107 95.5221 145.2C95.5221 142.293 96.4287 139.827 98.2421 137.8C100.082 135.773 102.282 134.76 104.842 134.76C106.228 134.76 107.508 135.067 108.682 135.68C109.882 136.267 110.828 137.08 111.522 138.12H111.682V135.4H115.202V154.16C115.202 157.307 114.308 159.773 112.522 161.56C110.708 163.373 108.308 164.28 105.322 164.28ZM124.968 126.36V155H121.288V126.36H124.968ZM139.657 155.64C136.777 155.64 134.404 154.653 132.537 152.68C130.671 150.707 129.737 148.213 129.737 145.2C129.737 142.213 130.644 139.733 132.457 137.76C134.271 135.76 136.591 134.76 139.417 134.76C142.324 134.76 144.631 135.707 146.337 137.6C148.071 139.467 148.937 142.093 148.937 145.48L148.897 145.88H133.497C133.551 147.8 134.191 149.347 135.417 150.52C136.644 151.693 138.111 152.28 139.817 152.28C142.164 152.28 144.004 151.107 145.337 148.76L148.617 150.36C147.737 152.013 146.511 153.307 144.937 154.24C143.391 155.173 141.631 155.64 139.657 155.64ZM133.777 142.84H145.017C144.911 141.48 144.351 140.36 143.337 139.48C142.351 138.573 141.017 138.12 139.337 138.12C137.951 138.12 136.751 138.547 135.737 139.4C134.751 140.253 134.097 141.4 133.777 142.84ZM164.932 155V126.36H173.692C178.065 126.36 181.572 127.68 184.212 130.32C186.878 132.96 188.212 136.413 188.212 140.68C188.212 144.973 186.878 148.44 184.212 151.08C181.572 153.693 178.065 155 173.692 155H164.932ZM168.612 129.88V151.48H173.692C177.025 151.48 179.652 150.533 181.572 148.64C183.492 146.72 184.452 144.067 184.452 140.68C184.452 137.32 183.492 134.68 181.572 132.76C179.652 130.84 177.025 129.88 173.692 129.88H168.612ZM201.762 155.64C198.882 155.64 196.509 154.653 194.642 152.68C192.775 150.707 191.842 148.213 191.842 145.2C191.842 142.213 192.749 139.733 194.562 137.76C196.375 135.76 198.695 134.76 201.522 134.76C204.429 134.76 206.735 135.707 208.442 137.6C210.175 139.467 211.042 142.093 211.042 145.48L211.002 145.88H195.602C195.655 147.8 196.295 149.347 197.522 150.52C198.749 151.693 200.215 152.28 201.922 152.28C204.269 152.28 206.109 151.107 207.442 148.76L210.722 150.36C209.842 152.013 208.615 153.307 207.042 154.24C205.495 155.173 203.735 155.64 201.762 155.64ZM195.882 142.84H207.122C207.015 141.48 206.455 140.36 205.442 139.48C204.455 138.573 203.122 138.12 201.442 138.12C200.055 138.12 198.855 138.547 197.842 139.4C196.855 140.253 196.202 141.4 195.882 142.84ZM225.137 155H221.457L213.537 135.4H217.537L223.297 150.6H223.377L229.217 135.4H233.137L225.137 155ZM245.353 155.64C242.473 155.64 240.099 154.653 238.233 152.68C236.366 150.707 235.433 148.213 235.433 145.2C235.433 142.213 236.339 139.733 238.153 137.76C239.966 135.76 242.286 134.76 245.113 134.76C248.019 134.76 250.326 135.707 252.033 137.6C253.766 139.467 254.633 142.093 254.633 145.48L254.593 145.88H239.193C239.246 147.8 239.886 149.347 241.113 150.52C242.339 151.693 243.806 152.28 245.513 152.28C247.859 152.28 249.699 151.107 251.033 148.76L254.312 150.36C253.433 152.013 252.206 153.307 250.633 154.24C249.086 155.173 247.326 155.64 245.353 155.64ZM239.473 142.84H250.713C250.606 141.48 250.046 140.36 249.033 139.48C248.046 138.573 246.713 138.12 245.033 138.12C243.646 138.12 242.446 138.547 241.433 139.4C240.446 140.253 239.793 141.4 239.473 142.84ZM263.278 126.36V155H259.598V126.36H263.278ZM268.047 145.2C268.047 142.187 268.993 139.693 270.887 137.72C272.807 135.747 275.22 134.76 278.127 134.76C281.033 134.76 283.433 135.747 285.327 137.72C287.247 139.693 288.207 142.187 288.207 145.2C288.207 148.24 287.247 150.733 285.327 152.68C283.433 154.653 281.033 155.64 278.127 155.64C275.22 155.64 272.807 154.653 270.887 152.68C268.993 150.707 268.047 148.213 268.047 145.2ZM271.727 145.2C271.727 147.307 272.34 149.013 273.567 150.32C274.793 151.627 276.313 152.28 278.127 152.28C279.94 152.28 281.46 151.627 282.687 150.32C283.913 149.013 284.527 147.307 284.527 145.2C284.527 143.12 283.913 141.427 282.687 140.12C281.433 138.787 279.913 138.12 278.127 138.12C276.34 138.12 274.82 138.787 273.567 140.12C272.34 141.427 271.727 143.12 271.727 145.2ZM302.554 152.28C304.314 152.28 305.794 151.613 306.994 150.28C308.194 148.973 308.794 147.28 308.794 145.2C308.794 143.147 308.194 141.453 306.994 140.12C305.794 138.787 304.314 138.12 302.554 138.12C300.767 138.12 299.274 138.787 298.074 140.12C296.901 141.453 296.314 143.147 296.314 145.2C296.314 147.28 296.901 148.987 298.074 150.32C299.274 151.627 300.767 152.28 302.554 152.28ZM303.154 155.64C301.714 155.64 300.394 155.333 299.194 154.72C298.021 154.107 297.114 153.293 296.474 152.28H296.314L296.474 155V163.64H292.794V135.4H296.314V138.12H296.474C297.114 137.107 298.021 136.293 299.194 135.68C300.394 135.067 301.714 134.76 303.154 134.76C305.741 134.76 307.927 135.773 309.714 137.8C311.554 139.853 312.474 142.32 312.474 145.2C312.474 148.107 311.554 150.573 309.714 152.6C307.927 154.627 305.741 155.64 303.154 155.64ZM326.245 155.64C323.365 155.64 320.991 154.653 319.125 152.68C317.258 150.707 316.325 148.213 316.325 145.2C316.325 142.213 317.231 139.733 319.045 137.76C320.858 135.76 323.178 134.76 326.005 134.76C328.911 134.76 331.218 135.707 332.925 137.6C334.658 139.467 335.525 142.093 335.525 145.48L335.485 145.88H320.085C320.138 147.8 320.778 149.347 322.005 150.52C323.231 151.693 324.698 152.28 326.405 152.28C328.751 152.28 330.591 151.107 331.925 148.76L335.205 150.36C334.325 152.013 333.098 153.307 331.525 154.24C329.978 155.173 328.218 155.64 326.245 155.64ZM320.365 142.84H331.605C331.498 141.48 330.938 140.36 329.925 139.48C328.938 138.573 327.605 138.12 325.925 138.12C324.538 138.12 323.338 138.547 322.325 139.4C321.338 140.253 320.685 141.4 320.365 142.84ZM344.17 155H340.49V135.4H344.01V138.6H344.17C344.543 137.56 345.303 136.68 346.45 135.96C347.623 135.213 348.77 134.84 349.89 134.84C350.957 134.84 351.863 135 352.61 135.32L351.49 138.88C351.037 138.693 350.317 138.6 349.33 138.6C347.943 138.6 346.73 139.16 345.69 140.28C344.677 141.4 344.17 142.707 344.17 144.2V155ZM394.429 141.84C394.429 145.84 393.242 149.027 390.869 151.4C388.202 154.227 384.696 155.64 380.349 155.64C376.189 155.64 372.669 154.2 369.789 151.32C366.909 148.44 365.469 144.893 365.469 140.68C365.469 136.467 366.909 132.92 369.789 130.04C372.669 127.16 376.189 125.72 380.349 125.72C382.456 125.72 384.442 126.093 386.309 126.84C388.176 127.587 389.709 128.64 390.909 130L388.269 132.64C387.389 131.573 386.242 130.747 384.829 130.16C383.442 129.547 381.949 129.24 380.349 129.24C377.229 129.24 374.589 130.32 372.429 132.48C370.296 134.667 369.229 137.4 369.229 140.68C369.229 143.96 370.296 146.693 372.429 148.88C374.589 151.04 377.229 152.12 380.349 152.12C383.202 152.12 385.576 151.32 387.469 149.72C389.362 148.12 390.456 145.92 390.749 143.12H380.349V139.68H394.229C394.362 140.427 394.429 141.147 394.429 141.84ZM402.759 155H399.079V135.4H402.599V138.6H402.759C403.132 137.56 403.892 136.68 405.039 135.96C406.212 135.213 407.359 134.84 408.479 134.84C409.546 134.84 410.452 135 411.199 135.32L410.079 138.88C409.626 138.693 408.906 138.6 407.919 138.6C406.532 138.6 405.319 139.16 404.279 140.28C403.266 141.4 402.759 142.707 402.759 144.2V155ZM412.879 145.2C412.879 142.187 413.826 139.693 415.719 137.72C417.639 135.747 420.053 134.76 422.959 134.76C425.866 134.76 428.266 135.747 430.159 137.72C432.079 139.693 433.039 142.187 433.039 145.2C433.039 148.24 432.079 150.733 430.159 152.68C428.266 154.653 425.866 155.64 422.959 155.64C420.053 155.64 417.639 154.653 415.719 152.68C413.826 150.707 412.879 148.213 412.879 145.2ZM416.559 145.2C416.559 147.307 417.173 149.013 418.399 150.32C419.626 151.627 421.146 152.28 422.959 152.28C424.773 152.28 426.293 151.627 427.519 150.32C428.746 149.013 429.359 147.307 429.359 145.2C429.359 143.12 428.746 141.427 427.519 140.12C426.266 138.787 424.746 138.12 422.959 138.12C421.173 138.12 419.653 138.787 418.399 140.12C417.173 141.427 416.559 143.12 416.559 145.2ZM454.987 155H451.467V152.28H451.307C450.747 153.24 449.88 154.04 448.707 154.68C447.56 155.32 446.36 155.64 445.107 155.64C442.707 155.64 440.854 154.96 439.547 153.6C438.267 152.213 437.627 150.253 437.627 147.72V135.4H441.307V147.48C441.387 150.68 443 152.28 446.147 152.28C447.614 152.28 448.84 151.693 449.827 150.52C450.814 149.32 451.307 147.893 451.307 146.24V135.4H454.987V155ZM470.667 152.28C472.427 152.28 473.907 151.613 475.107 150.28C476.307 148.973 476.907 147.28 476.907 145.2C476.907 143.147 476.307 141.453 475.107 140.12C473.907 138.787 472.427 138.12 470.667 138.12C468.88 138.12 467.387 138.787 466.187 140.12C465.013 141.453 464.427 143.147 464.427 145.2C464.427 147.28 465.013 148.987 466.187 150.32C467.387 151.627 468.88 152.28 470.667 152.28ZM471.267 155.64C469.827 155.64 468.507 155.333 467.307 154.72C466.133 154.107 465.227 153.293 464.587 152.28H464.427L464.587 155V163.64H460.907V135.4H464.427V138.12H464.587C465.227 137.107 466.133 136.293 467.307 135.68C468.507 135.067 469.827 134.76 471.267 134.76C473.853 134.76 476.04 135.773 477.827 137.8C479.667 139.853 480.587 142.32 480.587 145.2C480.587 148.107 479.667 150.573 477.827 152.6C476.04 154.627 473.853 155.64 471.267 155.64ZM500.362 149.56C500.362 151.267 499.615 152.707 498.122 153.88C496.629 155.053 494.749 155.64 492.482 155.64C490.509 155.64 488.775 155.133 487.282 154.12C485.789 153.08 484.722 151.72 484.082 150.04L487.362 148.64C487.842 149.813 488.535 150.733 489.442 151.4C490.375 152.04 491.389 152.36 492.482 152.36C493.655 152.36 494.629 152.107 495.402 151.6C496.202 151.093 496.602 150.493 496.602 149.8C496.602 148.547 495.642 147.627 493.722 147.04L490.362 146.2C486.549 145.24 484.642 143.4 484.642 140.68C484.642 138.893 485.362 137.467 486.802 136.4C488.269 135.307 490.135 134.76 492.402 134.76C494.135 134.76 495.695 135.173 497.082 136C498.495 136.827 499.482 137.933 500.042 139.32L496.762 140.68C496.389 139.853 495.775 139.213 494.922 138.76C494.095 138.28 493.162 138.04 492.122 138.04C491.162 138.04 490.295 138.28 489.522 138.76C488.775 139.24 488.402 139.827 488.402 140.52C488.402 141.64 489.455 142.44 491.562 142.92L494.522 143.68C498.415 144.64 500.362 146.6 500.362 149.56Z" fill="#7B7B7B"/>
<path d="M51.7356 188.544C51.7356 191.936 50.6049 194.773 48.3436 197.056C46.0609 199.36 43.2663 200.512 39.9596 200.512C36.6316 200.512 33.8369 199.36 31.5756 197.056C29.3143 194.773 28.1836 191.936 28.1836 188.544C28.1836 185.152 29.3143 182.315 31.5756 180.032C33.8369 177.728 36.6316 176.576 39.9596 176.576C43.2876 176.576 46.0823 177.739 48.3436 180.064C50.6049 182.347 51.7356 185.173 51.7356 188.544ZM31.1916 188.544C31.1916 191.189 32.0236 193.376 33.6876 195.104C35.3729 196.832 37.4636 197.696 39.9596 197.696C42.4556 197.696 44.5356 196.832 46.1996 195.104C47.8849 193.397 48.7276 191.211 48.7276 188.544C48.7276 185.877 47.8849 183.691 46.1996 181.984C44.5356 180.256 42.4556 179.392 39.9596 179.392C37.4636 179.392 35.3729 180.256 33.6876 181.984C32.0236 183.712 31.1916 185.899 31.1916 188.544ZM53.9016 184.32H56.7176V186.496H56.8456C57.2936 185.728 57.9763 185.088 58.8936 184.576C59.8323 184.064 60.8029 183.808 61.8056 183.808C63.7256 183.808 65.1976 184.363 66.2216 185.472C67.2669 186.56 67.7896 188.117 67.7896 190.144V200H64.8456V190.336C64.7816 187.776 63.4909 186.496 60.9736 186.496C59.8003 186.496 58.8189 186.976 58.0296 187.936C57.2403 188.875 56.8456 190.005 56.8456 191.328V200H53.9016V184.32ZM87.6676 200.512C84.2756 200.512 81.4383 199.371 79.1556 197.088C76.8943 194.805 75.7636 191.957 75.7636 188.544C75.7636 185.131 76.8943 182.293 79.1556 180.032C81.4169 177.728 84.2543 176.576 87.6676 176.576C91.1236 176.576 93.9289 177.824 96.0836 180.32L93.9716 182.368C92.3289 180.384 90.2276 179.392 87.6676 179.392C85.1289 179.392 83.0063 180.245 81.2996 181.952C79.6143 183.637 78.7716 185.835 78.7716 188.544C78.7716 191.253 79.6143 193.451 81.2996 195.136C83.0063 196.843 85.1289 197.696 87.6676 197.696C90.3343 197.696 92.6489 196.576 94.6116 194.336L96.7556 196.416C95.6676 197.717 94.3343 198.731 92.7556 199.456C91.1769 200.16 89.4809 200.512 87.6676 200.512ZM100.564 195.2C100.564 195.968 100.884 196.608 101.524 197.12C102.185 197.632 102.953 197.888 103.828 197.888C105.065 197.888 106.164 197.429 107.124 196.512C108.105 195.595 108.596 194.517 108.596 193.28C107.678 192.555 106.398 192.192 104.756 192.192C103.561 192.192 102.558 192.48 101.748 193.056C100.958 193.632 100.564 194.347 100.564 195.2ZM104.372 183.808C106.548 183.808 108.265 184.395 109.524 185.568C110.782 186.72 111.412 188.309 111.412 190.336V200H108.596V197.824H108.468C107.252 199.616 105.63 200.512 103.604 200.512C101.876 200.512 100.425 200 99.2511 198.976C98.0991 197.952 97.5231 196.672 97.5231 195.136C97.5231 193.515 98.1311 192.224 99.3471 191.264C100.585 190.304 102.228 189.824 104.276 189.824C106.025 189.824 107.465 190.144 108.596 190.784V190.112C108.596 189.088 108.19 188.224 107.38 187.52C106.569 186.795 105.62 186.432 104.532 186.432C102.889 186.432 101.588 187.125 100.628 188.512L98.0351 186.88C99.4644 184.832 101.577 183.808 104.372 183.808ZM117.036 200H114.092V184.32H116.908V186.496H117.036C117.484 185.728 118.167 185.088 119.084 184.576C120.023 184.064 120.951 183.808 121.868 183.808C123.02 183.808 124.033 184.075 124.908 184.608C125.783 185.141 126.423 185.877 126.828 186.816C128.129 184.811 129.932 183.808 132.236 183.808C134.049 183.808 135.447 184.363 136.428 185.472C137.409 186.581 137.9 188.16 137.9 190.208V200H134.956V190.656C134.956 189.184 134.689 188.128 134.156 187.488C133.623 186.827 132.727 186.496 131.468 186.496C130.337 186.496 129.388 186.976 128.62 187.936C127.852 188.896 127.468 190.027 127.468 191.328V200H124.524V190.656C124.524 189.184 124.257 188.128 123.724 187.488C123.191 186.827 122.295 186.496 121.036 186.496C119.905 186.496 118.956 186.976 118.188 187.936C117.42 188.896 117.036 190.027 117.036 191.328V200ZM148.382 197.824C149.79 197.824 150.974 197.291 151.934 196.224C152.894 195.179 153.374 193.824 153.374 192.16C153.374 190.517 152.894 189.163 151.934 188.096C150.974 187.029 149.79 186.496 148.382 186.496C146.953 186.496 145.758 187.029 144.798 188.096C143.859 189.163 143.39 190.517 143.39 192.16C143.39 193.824 143.859 195.189 144.798 196.256C145.758 197.301 146.953 197.824 148.382 197.824ZM148.862 200.512C147.71 200.512 146.654 200.267 145.694 199.776C144.755 199.285 144.03 198.635 143.518 197.824H143.39L143.518 200V206.912H140.574V184.32H143.39V186.496H143.518C144.03 185.685 144.755 185.035 145.694 184.544C146.654 184.053 147.71 183.808 148.862 183.808C150.931 183.808 152.681 184.619 154.11 186.24C155.582 187.883 156.318 189.856 156.318 192.16C156.318 194.485 155.582 196.459 154.11 198.08C152.681 199.701 150.931 200.512 148.862 200.512ZM171.978 200H169.162V197.824H169.034C168.586 198.592 167.893 199.232 166.954 199.744C166.037 200.256 165.077 200.512 164.074 200.512C162.154 200.512 160.672 199.968 159.626 198.88C158.602 197.771 158.09 196.203 158.09 194.176V184.32H161.034V193.984C161.098 196.544 162.389 197.824 164.906 197.824C166.08 197.824 167.061 197.355 167.85 196.416C168.64 195.456 169.034 194.315 169.034 192.992V184.32H171.978V200ZM186.766 195.648C186.766 197.013 186.168 198.165 184.974 199.104C183.779 200.043 182.275 200.512 180.462 200.512C178.883 200.512 177.496 200.107 176.302 199.296C175.107 198.464 174.254 197.376 173.742 196.032L176.366 194.912C176.75 195.851 177.304 196.587 178.03 197.12C178.776 197.632 179.587 197.888 180.462 197.888C181.4 197.888 182.179 197.685 182.798 197.28C183.438 196.875 183.758 196.395 183.758 195.84C183.758 194.837 182.99 194.101 181.454 193.632L178.766 192.96C175.715 192.192 174.19 190.72 174.19 188.544C174.19 187.115 174.766 185.973 175.918 185.12C177.091 184.245 178.584 183.808 180.398 183.808C181.784 183.808 183.032 184.139 184.142 184.8C185.272 185.461 186.062 186.347 186.51 187.456L183.886 188.544C183.587 187.883 183.096 187.371 182.414 187.008C181.752 186.624 181.006 186.432 180.174 186.432C179.406 186.432 178.712 186.624 178.094 187.008C177.496 187.392 177.198 187.861 177.198 188.416C177.198 189.312 178.04 189.952 179.726 190.336L182.094 190.944C185.208 191.712 186.766 193.28 186.766 195.648Z" fill="#4285F4"/>
<path d="M199.5 192C201.433 192 203 190.433 203 188.5C203 186.567 201.433 185 199.5 185C197.567 185 196 186.567 196 188.5C196 190.433 197.567 192 199.5 192Z" fill="#676C72"/>
<path d="M235.352 189.472C235.352 192.672 234.403 195.221 232.504 197.12C230.371 199.381 227.565 200.512 224.088 200.512C220.76 200.512 217.944 199.36 215.64 197.056C213.336 194.752 212.184 191.915 212.184 188.544C212.184 185.173 213.336 182.336 215.64 180.032C217.944 177.728 220.76 176.576 224.088 176.576C225.773 176.576 227.363 176.875 228.856 177.472C230.349 178.069 231.576 178.912 232.536 180L230.424 182.112C229.72 181.259 228.803 180.597 227.672 180.128C226.563 179.637 225.368 179.392 224.088 179.392C221.592 179.392 219.48 180.256 217.752 181.984C216.045 183.733 215.192 185.92 215.192 188.544C215.192 191.168 216.045 193.355 217.752 195.104C219.48 196.832 221.592 197.696 224.088 197.696C226.371 197.696 228.269 197.056 229.784 195.776C231.299 194.496 232.173 192.736 232.408 190.496H224.088V187.744H235.192C235.299 188.341 235.352 188.917 235.352 189.472ZM236.725 192.16C236.725 189.749 237.482 187.755 238.997 186.176C240.533 184.597 242.463 183.808 244.789 183.808C247.114 183.808 249.034 184.597 250.549 186.176C252.085 187.755 252.853 189.749 252.853 192.16C252.853 194.592 252.085 196.587 250.549 198.144C249.034 199.723 247.114 200.512 244.789 200.512C242.463 200.512 240.533 199.723 238.997 198.144C237.482 196.565 236.725 194.571 236.725 192.16ZM239.669 192.16C239.669 193.845 240.159 195.211 241.141 196.256C242.122 197.301 243.338 197.824 244.789 197.824C246.239 197.824 247.455 197.301 248.437 196.256C249.418 195.211 249.909 193.845 249.909 192.16C249.909 190.496 249.418 189.141 248.437 188.096C247.434 187.029 246.218 186.496 244.789 186.496C243.359 186.496 242.143 187.029 241.141 188.096C240.159 189.141 239.669 190.496 239.669 192.16ZM262.191 200H259.247L252.911 184.32H256.111L260.719 196.48H260.783L265.455 184.32H268.591L262.191 200ZM276.443 200.512C274.139 200.512 272.241 199.723 270.747 198.144C269.254 196.565 268.507 194.571 268.507 192.16C268.507 189.771 269.233 187.787 270.683 186.208C272.134 184.608 273.99 183.808 276.251 183.808C278.577 183.808 280.422 184.565 281.787 186.08C283.174 187.573 283.867 189.675 283.867 192.384L283.835 192.704H271.515C271.558 194.24 272.07 195.477 273.051 196.416C274.033 197.355 275.206 197.824 276.571 197.824C278.449 197.824 279.921 196.885 280.987 195.008L283.611 196.288C282.907 197.611 281.926 198.645 280.667 199.392C279.43 200.139 278.022 200.512 276.443 200.512ZM271.739 190.272H280.731C280.646 189.184 280.198 188.288 279.387 187.584C278.598 186.859 277.531 186.496 276.187 186.496C275.078 186.496 274.118 186.837 273.307 187.52C272.518 188.203 271.995 189.12 271.739 190.272ZM288.864 200H285.92V184.32H288.736V186.88H288.864C289.162 186.048 289.77 185.344 290.688 184.768C291.626 184.171 292.544 183.872 293.44 183.872C294.293 183.872 295.018 184 295.616 184.256L294.72 187.104C294.357 186.955 293.781 186.88 292.992 186.88C291.882 186.88 290.912 187.328 290.08 188.224C289.269 189.12 288.864 190.165 288.864 191.36V200ZM296.905 184.32H299.721V186.496H299.849C300.297 185.728 300.979 185.088 301.897 184.576C302.835 184.064 303.806 183.808 304.809 183.808C306.729 183.808 308.201 184.363 309.225 185.472C310.27 186.56 310.793 188.117 310.793 190.144V200H307.849V190.336C307.785 187.776 306.494 186.496 303.977 186.496C302.803 186.496 301.822 186.976 301.033 187.936C300.243 188.875 299.849 190.005 299.849 191.328V200H296.905V184.32ZM316.552 200H313.608V184.32H316.424V186.496H316.552C317 185.728 317.683 185.088 318.6 184.576C319.539 184.064 320.467 183.808 321.384 183.808C322.536 183.808 323.55 184.075 324.424 184.608C325.299 185.141 325.939 185.877 326.344 186.816C327.646 184.811 329.448 183.808 331.752 183.808C333.566 183.808 334.963 184.363 335.944 185.472C336.926 186.581 337.416 188.16 337.416 190.208V200H334.472V190.656C334.472 189.184 334.206 188.128 333.672 187.488C333.139 186.827 332.243 186.496 330.984 186.496C329.854 186.496 328.904 186.976 328.136 187.936C327.368 188.896 326.984 190.027 326.984 191.328V200H324.04V190.656C324.04 189.184 323.774 188.128 323.24 187.488C322.707 186.827 321.811 186.496 320.552 186.496C319.422 186.496 318.472 186.976 317.704 187.936C316.936 188.896 316.552 190.027 316.552 191.328V200ZM347.258 200.512C344.954 200.512 343.056 199.723 341.562 198.144C340.069 196.565 339.322 194.571 339.322 192.16C339.322 189.771 340.048 187.787 341.498 186.208C342.949 184.608 344.805 183.808 347.066 183.808C349.392 183.808 351.237 184.565 352.602 186.08C353.989 187.573 354.682 189.675 354.682 192.384L354.65 192.704H342.33C342.373 194.24 342.885 195.477 343.866 196.416C344.848 197.355 346.021 197.824 347.386 197.824C349.264 197.824 350.736 196.885 351.802 195.008L354.426 196.288C353.722 197.611 352.741 198.645 351.482 199.392C350.245 200.139 348.837 200.512 347.258 200.512ZM342.554 190.272H351.546C351.461 189.184 351.013 188.288 350.202 187.584C349.413 186.859 348.346 186.496 347.002 186.496C345.893 186.496 344.933 186.837 344.122 187.52C343.333 188.203 342.81 189.12 342.554 190.272ZM356.735 184.32H359.551V186.496H359.679C360.127 185.728 360.809 185.088 361.727 184.576C362.665 184.064 363.636 183.808 364.639 183.808C366.559 183.808 368.031 184.363 369.055 185.472C370.1 186.56 370.623 188.117 370.623 190.144V200H367.679V190.336C367.615 187.776 366.324 186.496 363.807 186.496C362.633 186.496 361.652 186.976 360.863 187.936C360.073 188.875 359.679 190.005 359.679 191.328V200H356.735V184.32ZM378.834 200.256C377.554 200.256 376.487 199.861 375.634 199.072C374.802 198.283 374.375 197.184 374.354 195.776V187.008H371.602V184.32H374.354V179.52H377.298V184.32H381.138V187.008H377.298V194.816C377.298 195.861 377.5 196.576 377.906 196.96C378.311 197.323 378.77 197.504 379.282 197.504C379.516 197.504 379.74 197.483 379.954 197.44C380.188 197.376 380.402 197.301 380.594 197.216L381.522 199.84C380.754 200.117 379.858 200.256 378.834 200.256ZM400.361 200.512C396.969 200.512 394.131 199.371 391.849 197.088C389.587 194.805 388.457 191.957 388.457 188.544C388.457 185.131 389.587 182.293 391.849 180.032C394.11 177.728 396.947 176.576 400.361 176.576C403.817 176.576 406.622 177.824 408.777 180.32L406.665 182.368C405.022 180.384 402.921 179.392 400.361 179.392C397.822 179.392 395.699 180.245 393.993 181.952C392.307 183.637 391.465 185.835 391.465 188.544C391.465 191.253 392.307 193.451 393.993 195.136C395.699 196.843 397.822 197.696 400.361 197.696C403.027 197.696 405.342 196.576 407.305 194.336L409.449 196.416C408.361 197.717 407.027 198.731 405.449 199.456C403.87 200.16 402.174 200.512 400.361 200.512ZM410.216 192.16C410.216 189.749 410.973 187.755 412.488 186.176C414.024 184.597 415.955 183.808 418.28 183.808C420.605 183.808 422.525 184.597 424.04 186.176C425.576 187.755 426.344 189.749 426.344 192.16C426.344 194.592 425.576 196.587 424.04 198.144C422.525 199.723 420.605 200.512 418.28 200.512C415.955 200.512 414.024 199.723 412.488 198.144C410.973 196.565 410.216 194.571 410.216 192.16ZM413.16 192.16C413.16 193.845 413.651 195.211 414.632 196.256C415.613 197.301 416.829 197.824 418.28 197.824C419.731 197.824 420.947 197.301 421.928 196.256C422.909 195.211 423.4 193.845 423.4 192.16C423.4 190.496 422.909 189.141 421.928 188.096C420.925 187.029 419.709 186.496 418.28 186.496C416.851 186.496 415.635 187.029 414.632 188.096C413.651 189.141 413.16 190.496 413.16 192.16ZM431.166 177.088V200H428.222V177.088H431.166ZM437.057 177.088V200H434.113V177.088H437.057ZM446.888 200.512C444.584 200.512 442.686 199.723 441.192 198.144C439.699 196.565 438.952 194.571 438.952 192.16C438.952 189.771 439.678 187.787 441.128 186.208C442.579 184.608 444.435 183.808 446.696 183.808C449.022 183.808 450.867 184.565 452.232 186.08C453.619 187.573 454.312 189.675 454.312 192.384L454.28 192.704H441.96C442.003 194.24 442.515 195.477 443.496 196.416C444.478 197.355 445.651 197.824 447.016 197.824C448.894 197.824 450.366 196.885 451.432 195.008L454.056 196.288C453.352 197.611 452.371 198.645 451.112 199.392C449.875 200.139 448.467 200.512 446.888 200.512ZM442.184 190.272H451.176C451.091 189.184 450.643 188.288 449.832 187.584C449.043 186.859 447.976 186.496 446.632 186.496C445.523 186.496 444.563 186.837 443.752 187.52C442.963 188.203 442.44 189.12 442.184 190.272ZM463.561 197.824C465.011 197.824 466.195 197.301 467.113 196.256C468.073 195.211 468.553 193.845 468.553 192.16C468.553 190.517 468.073 189.163 467.113 188.096C466.174 187.029 464.99 186.496 463.561 186.496C462.153 186.496 460.969 187.029 460.009 188.096C459.049 189.163 458.569 190.517 458.569 192.16C458.569 193.824 459.049 195.179 460.009 196.224C460.969 197.291 462.153 197.824 463.561 197.824ZM463.465 207.424C462.59 207.424 461.769 207.307 461.001 207.072C460.233 206.859 459.529 206.549 458.889 206.144C458.27 205.739 457.737 205.259 457.289 204.704C456.841 204.149 456.499 203.531 456.265 202.848L459.049 201.696C459.369 202.613 459.923 203.349 460.713 203.904C461.502 204.459 462.419 204.736 463.465 204.736C465.065 204.736 466.313 204.256 467.209 203.296C468.105 202.336 468.553 201.013 468.553 199.328V197.824H468.425C467.87 198.656 467.113 199.317 466.153 199.808C465.214 200.277 464.19 200.512 463.081 200.512C461.033 200.512 459.273 199.712 457.801 198.112C456.35 196.469 455.625 194.485 455.625 192.16C455.625 189.835 456.35 187.861 457.801 186.24C459.273 184.619 461.033 183.808 463.081 183.808C464.19 183.808 465.214 184.053 466.153 184.544C467.113 185.013 467.87 185.664 468.425 186.496H468.553V184.32H471.369V199.328C471.369 201.845 470.654 203.819 469.225 205.248C467.774 206.699 465.854 207.424 463.465 207.424ZM481.202 200.512C478.898 200.512 476.999 199.723 475.506 198.144C474.013 196.565 473.266 194.571 473.266 192.16C473.266 189.771 473.991 187.787 475.442 186.208C476.893 184.608 478.749 183.808 481.01 183.808C483.335 183.808 485.181 184.565 486.546 186.08C487.933 187.573 488.626 189.675 488.626 192.384L488.594 192.704H476.274C476.317 194.24 476.829 195.477 477.81 196.416C478.791 197.355 479.965 197.824 481.33 197.824C483.207 197.824 484.679 196.885 485.746 195.008L488.37 196.288C487.666 197.611 486.685 198.645 485.426 199.392C484.189 200.139 482.781 200.512 481.202 200.512ZM476.498 190.272H485.49C485.405 189.184 484.957 188.288 484.146 187.584C483.357 186.859 482.29 186.496 480.946 186.496C479.837 186.496 478.877 186.837 478.066 187.52C477.277 188.203 476.754 189.12 476.498 190.272Z" fill="#7B7B7B"/>
<path d="M125.206 219.544C125.206 222.936 124.075 225.773 121.814 228.056C119.531 230.36 116.737 231.512 113.43 231.512C110.102 231.512 107.307 230.36 105.046 228.056C102.785 225.773 101.654 222.936 101.654 219.544C101.654 216.152 102.785 213.315 105.046 211.032C107.307 208.728 110.102 207.576 113.43 207.576C116.758 207.576 119.553 208.739 121.814 211.064C124.075 213.347 125.206 216.173 125.206 219.544ZM104.662 219.544C104.662 222.189 105.494 224.376 107.158 226.104C108.843 227.832 110.934 228.696 113.43 228.696C115.926 228.696 118.006 227.832 119.67 226.104C121.355 224.397 122.198 222.211 122.198 219.544C122.198 216.877 121.355 214.691 119.67 212.984C118.006 211.256 115.926 210.392 113.43 210.392C110.934 210.392 108.843 211.256 107.158 212.984C105.494 214.712 104.662 216.899 104.662 219.544ZM134.76 207.832C135.827 207.832 136.702 208.013 137.384 208.376L136.584 210.968C136.072 210.712 135.496 210.584 134.856 210.584C134.131 210.584 133.534 210.84 133.064 211.352C132.616 211.843 132.392 212.504 132.392 213.336V215.32H136.488V218.008H132.392V231H129.448V218.008H126.504V215.32H129.448V213.048C129.448 211.491 129.939 210.232 130.92 209.272C131.923 208.312 133.203 207.832 134.76 207.832ZM158.949 208.088V210.904H148.517V218.168H157.925V220.92H148.517V228.184H158.949V231H145.573V208.088H158.949ZM161.452 215.32H164.268V217.496H164.396C164.844 216.728 165.527 216.088 166.444 215.576C167.383 215.064 168.353 214.808 169.356 214.808C171.276 214.808 172.748 215.363 173.772 216.472C174.817 217.56 175.34 219.117 175.34 221.144V231H172.396V221.336C172.332 218.776 171.041 217.496 168.524 217.496C167.351 217.496 166.369 217.976 165.58 218.936C164.791 219.875 164.396 221.005 164.396 222.328V231H161.452V215.32ZM185.04 228.824C186.49 228.824 187.674 228.301 188.592 227.256C189.552 226.211 190.032 224.845 190.032 223.16C190.032 221.517 189.552 220.163 188.592 219.096C187.653 218.029 186.469 217.496 185.04 217.496C183.632 217.496 182.448 218.029 181.488 219.096C180.528 220.163 180.048 221.517 180.048 223.16C180.048 224.824 180.528 226.179 181.488 227.224C182.448 228.291 183.632 228.824 185.04 228.824ZM184.944 238.424C184.069 238.424 183.248 238.307 182.48 238.072C181.712 237.859 181.008 237.549 180.368 237.144C179.749 236.739 179.216 236.259 178.768 235.704C178.32 235.149 177.978 234.531 177.744 233.848L180.528 232.696C180.848 233.613 181.402 234.349 182.192 234.904C182.981 235.459 183.898 235.736 184.944 235.736C186.544 235.736 187.792 235.256 188.688 234.296C189.584 233.336 190.032 232.013 190.032 230.328V228.824H189.904C189.349 229.656 188.592 230.317 187.632 230.808C186.693 231.277 185.669 231.512 184.56 231.512C182.512 231.512 180.752 230.712 179.28 229.112C177.829 227.469 177.104 225.485 177.104 223.16C177.104 220.835 177.829 218.861 179.28 217.24C180.752 215.619 182.512 214.808 184.56 214.808C185.669 214.808 186.693 215.053 187.632 215.544C188.592 216.013 189.349 216.664 189.904 217.496H190.032V215.32H192.848V230.328C192.848 232.845 192.133 234.819 190.704 236.248C189.253 237.699 187.333 238.424 184.944 238.424ZM199.605 209.912C199.605 210.488 199.402 210.979 198.997 211.384C198.592 211.789 198.101 211.992 197.525 211.992C196.949 211.992 196.458 211.789 196.053 211.384C195.648 210.979 195.445 210.488 195.445 209.912C195.445 209.336 195.648 208.845 196.053 208.44C196.458 208.035 196.949 207.832 197.525 207.832C198.101 207.832 198.592 208.035 198.997 208.44C199.402 208.845 199.605 209.336 199.605 209.912ZM198.997 215.32V231H196.053V215.32H198.997ZM202.188 215.32H205.004V217.496H205.132C205.58 216.728 206.263 216.088 207.18 215.576C208.119 215.064 209.09 214.808 210.092 214.808C212.012 214.808 213.484 215.363 214.508 216.472C215.554 217.56 216.076 219.117 216.076 221.144V231H213.132V221.336C213.068 218.776 211.778 217.496 209.26 217.496C208.087 217.496 207.106 217.976 206.316 218.936C205.527 219.875 205.132 221.005 205.132 222.328V231H202.188V215.32ZM225.932 231.512C223.628 231.512 221.729 230.723 220.236 229.144C218.743 227.565 217.996 225.571 217.996 223.16C217.996 220.771 218.721 218.787 220.172 217.208C221.623 215.608 223.479 214.808 225.74 214.808C228.065 214.808 229.911 215.565 231.276 217.08C232.663 218.573 233.356 220.675 233.356 223.384L233.324 223.704H221.004C221.047 225.24 221.559 226.477 222.54 227.416C223.521 228.355 224.695 228.824 226.06 228.824C227.937 228.824 229.409 227.885 230.476 226.008L233.1 227.288C232.396 228.611 231.415 229.645 230.156 230.392C228.919 231.139 227.511 231.512 225.932 231.512ZM221.228 221.272H230.22C230.135 220.184 229.687 219.288 228.876 218.584C228.087 217.859 227.02 217.496 225.676 217.496C224.567 217.496 223.607 217.837 222.796 218.52C222.007 219.203 221.484 220.12 221.228 221.272ZM242.605 231.512C240.301 231.512 238.402 230.723 236.909 229.144C235.415 227.565 234.669 225.571 234.669 223.16C234.669 220.771 235.394 218.787 236.845 217.208C238.295 215.608 240.151 214.808 242.413 214.808C244.738 214.808 246.583 215.565 247.949 217.08C249.335 218.573 250.029 220.675 250.029 223.384L249.997 223.704H237.677C237.719 225.24 238.231 226.477 239.213 227.416C240.194 228.355 241.367 228.824 242.733 228.824C244.61 228.824 246.082 227.885 247.149 226.008L249.773 227.288C249.069 228.611 248.087 229.645 246.829 230.392C245.591 231.139 244.183 231.512 242.605 231.512ZM237.901 221.272H246.893C246.807 220.184 246.359 219.288 245.549 218.584C244.759 217.859 243.693 217.496 242.349 217.496C241.239 217.496 240.279 217.837 239.469 218.52C238.679 219.203 238.157 220.12 237.901 221.272ZM255.025 231H252.081V215.32H254.897V217.88H255.025C255.323 217.048 255.931 216.344 256.849 215.768C257.787 215.171 258.705 214.872 259.601 214.872C260.454 214.872 261.179 215 261.777 215.256L260.881 218.104C260.518 217.955 259.942 217.88 259.153 217.88C258.043 217.88 257.073 218.328 256.241 219.224C255.43 220.12 255.025 221.165 255.025 222.36V231ZM266.874 209.912C266.874 210.488 266.671 210.979 266.266 211.384C265.86 211.789 265.37 211.992 264.794 211.992C264.218 211.992 263.727 211.789 263.322 211.384C262.916 210.979 262.714 210.488 262.714 209.912C262.714 209.336 262.916 208.845 263.322 208.44C263.727 208.035 264.218 207.832 264.794 207.832C265.37 207.832 265.86 208.035 266.266 208.44C266.671 208.845 266.874 209.336 266.874 209.912ZM266.266 215.32V231H263.322V215.32H266.266ZM269.457 215.32H272.273V217.496H272.401C272.849 216.728 273.532 216.088 274.449 215.576C275.388 215.064 276.358 214.808 277.361 214.808C279.281 214.808 280.753 215.363 281.777 216.472C282.822 217.56 283.345 219.117 283.345 221.144V231H280.401V221.336C280.337 218.776 279.046 217.496 276.529 217.496C275.356 217.496 274.374 217.976 273.585 218.936C272.796 219.875 272.401 221.005 272.401 222.328V231H269.457V215.32ZM293.044 228.824C294.495 228.824 295.679 228.301 296.596 227.256C297.556 226.211 298.036 224.845 298.036 223.16C298.036 221.517 297.556 220.163 296.596 219.096C295.658 218.029 294.474 217.496 293.044 217.496C291.636 217.496 290.452 218.029 289.492 219.096C288.532 220.163 288.052 221.517 288.052 223.16C288.052 224.824 288.532 226.179 289.492 227.224C290.452 228.291 291.636 228.824 293.044 228.824ZM292.948 238.424C292.074 238.424 291.252 238.307 290.484 238.072C289.716 237.859 289.012 237.549 288.372 237.144C287.754 236.739 287.22 236.259 286.772 235.704C286.324 235.149 285.983 234.531 285.748 233.848L288.532 232.696C288.852 233.613 289.407 234.349 290.196 234.904C290.986 235.459 291.903 235.736 292.948 235.736C294.548 235.736 295.796 235.256 296.692 234.296C297.588 233.336 298.036 232.013 298.036 230.328V228.824H297.908C297.354 229.656 296.596 230.317 295.636 230.808C294.698 231.277 293.674 231.512 292.564 231.512C290.516 231.512 288.756 230.712 287.284 229.112C285.834 227.469 285.108 225.485 285.108 223.16C285.108 220.835 285.834 218.861 287.284 217.24C288.756 215.619 290.516 214.808 292.564 214.808C293.674 214.808 294.698 215.053 295.636 215.544C296.596 216.013 297.354 216.664 297.908 217.496H298.036V215.32H300.852V230.328C300.852 232.845 300.138 234.819 298.708 236.248C297.258 237.699 295.338 238.424 292.948 238.424ZM304.794 234.584L303.418 233.688L305.146 231C304.698 230.915 304.314 230.691 303.994 230.328C303.695 229.965 303.546 229.528 303.546 229.016C303.546 228.397 303.759 227.885 304.186 227.48C304.613 227.053 305.125 226.84 305.722 226.84C306.341 226.84 306.853 227.053 307.258 227.48C307.685 227.885 307.898 228.397 307.898 229.016C307.898 229.592 307.685 230.221 307.258 230.904L304.794 234.584ZM320.447 231H317.503V208.088H321.087L332.223 225.912H332.351L332.223 221.496V208.088H335.167V231H332.095L320.447 212.312H320.319L320.447 216.728V231ZM340.307 226.2C340.307 226.968 340.627 227.608 341.267 228.12C341.929 228.632 342.697 228.888 343.571 228.888C344.809 228.888 345.907 228.429 346.867 227.512C347.849 226.595 348.339 225.517 348.339 224.28C347.422 223.555 346.142 223.192 344.499 223.192C343.305 223.192 342.302 223.48 341.491 224.056C340.702 224.632 340.307 225.347 340.307 226.2ZM344.115 214.808C346.291 214.808 348.009 215.395 349.267 216.568C350.526 217.72 351.155 219.309 351.155 221.336V231H348.339V228.824H348.211C346.995 230.616 345.374 231.512 343.347 231.512C341.619 231.512 340.169 231 338.995 229.976C337.843 228.952 337.267 227.672 337.267 226.136C337.267 224.515 337.875 223.224 339.091 222.264C340.329 221.304 341.971 220.824 344.019 220.824C345.769 220.824 347.209 221.144 348.339 221.784V221.112C348.339 220.088 347.934 219.224 347.123 218.52C346.313 217.795 345.363 217.432 344.275 217.432C342.633 217.432 341.331 218.125 340.371 219.512L337.779 217.88C339.209 215.832 341.321 214.808 344.115 214.808ZM360.72 228.824C362.17 228.824 363.354 228.301 364.272 227.256C365.232 226.211 365.712 224.845 365.712 223.16C365.712 221.517 365.232 220.163 364.272 219.096C363.333 218.029 362.149 217.496 360.72 217.496C359.312 217.496 358.128 218.029 357.168 219.096C356.208 220.163 355.728 221.517 355.728 223.16C355.728 224.824 356.208 226.179 357.168 227.224C358.128 228.291 359.312 228.824 360.72 228.824ZM360.624 238.424C359.749 238.424 358.928 238.307 358.16 238.072C357.392 237.859 356.688 237.549 356.048 237.144C355.429 236.739 354.896 236.259 354.448 235.704C354 235.149 353.658 234.531 353.424 233.848L356.208 232.696C356.528 233.613 357.082 234.349 357.872 234.904C358.661 235.459 359.578 235.736 360.624 235.736C362.224 235.736 363.472 235.256 364.368 234.296C365.264 233.336 365.712 232.013 365.712 230.328V228.824H365.584C365.029 229.656 364.272 230.317 363.312 230.808C362.373 231.277 361.349 231.512 360.24 231.512C358.192 231.512 356.432 230.712 354.96 229.112C353.509 227.469 352.784 225.485 352.784 223.16C352.784 220.835 353.509 218.861 354.96 217.24C356.432 215.619 358.192 214.808 360.24 214.808C361.349 214.808 362.373 215.053 363.312 215.544C364.272 216.013 365.029 216.664 365.584 217.496H365.712V215.32H368.528V230.328C368.528 232.845 367.813 234.819 366.384 236.248C364.933 237.699 363.013 238.424 360.624 238.424ZM379.157 228.824C380.565 228.824 381.749 228.291 382.709 227.224C383.669 226.179 384.149 224.824 384.149 223.16C384.149 221.517 383.669 220.163 382.709 219.096C381.749 218.029 380.565 217.496 379.157 217.496C377.728 217.496 376.533 218.029 375.573 219.096C374.634 220.163 374.165 221.517 374.165 223.16C374.165 224.824 374.634 226.189 375.573 227.256C376.533 228.301 377.728 228.824 379.157 228.824ZM379.637 231.512C378.485 231.512 377.429 231.267 376.469 230.776C375.53 230.285 374.805 229.635 374.293 228.824H374.165L374.293 231V237.912H371.349V215.32H374.165V217.496H374.293C374.805 216.685 375.53 216.035 376.469 215.544C377.429 215.053 378.485 214.808 379.637 214.808C381.706 214.808 383.456 215.619 384.885 217.24C386.357 218.883 387.093 220.856 387.093 223.16C387.093 225.485 386.357 227.459 384.885 229.08C383.456 230.701 381.706 231.512 379.637 231.512ZM402.753 231H399.937V228.824H399.809C399.361 229.592 398.668 230.232 397.729 230.744C396.812 231.256 395.852 231.512 394.849 231.512C392.929 231.512 391.447 230.968 390.401 229.88C389.377 228.771 388.865 227.203 388.865 225.176V215.32H391.809V224.984C391.873 227.544 393.164 228.824 395.681 228.824C396.855 228.824 397.836 228.355 398.625 227.416C399.415 226.456 399.809 225.315 399.809 223.992V215.32H402.753V231ZM408.641 231H405.697V215.32H408.513V217.88H408.641C408.94 217.048 409.548 216.344 410.465 215.768C411.404 215.171 412.321 214.872 413.217 214.872C414.07 214.872 414.796 215 415.393 215.256L414.497 218.104C414.134 217.955 413.558 217.88 412.769 217.88C411.66 217.88 410.689 218.328 409.857 219.224C409.046 220.12 408.641 221.165 408.641 222.36V231Z" fill="#7B7B7B"/>
</g>
<defs>
<clipPath id="clip0_282_80">
<rect width="516" height="239" fill="white"/>
</clipPath>
</defs>
</svg>
